<svg xmlns="http://www.w3.org/2000/svg" xmlns:xlink="http://www.w3.org/1999/xlink" width="96" zoomAndPan="magnify" viewBox="0 0 72 30.000001" height="40" preserveAspectRatio="xMidYMid meet" version="1.0"><defs><g/></defs><g fill="#4d9d2a" fill-opacity="1"><g transform="translate(11.220513, 22.016128)"><g><path d="M 14.5625 -5.421875 C 14.5625 -4.546875 14.410156 -3.75 14.109375 -3.03125 C 13.816406 -2.3125 13.382812 -1.695312 12.8125 -1.1875 C 12.25 -0.6875 11.5625 -0.296875 10.75 -0.015625 C 9.945312 0.253906 9.039062 0.390625 8.03125 0.390625 C 7.007812 0.390625 6.097656 0.253906 5.296875 -0.015625 C 4.492188 -0.296875 3.804688 -0.6875 3.234375 -1.1875 C 2.671875 -1.695312 2.238281 -2.3125 1.9375 -3.03125 C 1.644531 -3.75 1.5 -4.546875 1.5 -5.421875 L 1.5 -14.65625 C 1.675781 -14.6875 1.957031 -14.726562 2.34375 -14.78125 C 2.726562 -14.84375 3.097656 -14.875 3.453125 -14.875 C 3.828125 -14.875 4.15625 -14.84375 4.4375 -14.78125 C 4.71875 -14.726562 4.953125 -14.628906 5.140625 -14.484375 C 5.335938 -14.335938 5.484375 -14.132812 5.578125 -13.875 C 5.679688 -13.625 5.734375 -13.289062 5.734375 -12.875 L 5.734375 -5.484375 C 5.734375 -4.710938 5.945312 -4.109375 6.375 -3.671875 C 6.800781 -3.242188 7.351562 -3.03125 8.03125 -3.03125 C 8.726562 -3.03125 9.285156 -3.242188 9.703125 -3.671875 C 10.117188 -4.109375 10.328125 -4.710938 10.328125 -5.484375 L 10.328125 -14.65625 C 10.503906 -14.6875 10.785156 -14.726562 11.171875 -14.78125 C 11.554688 -14.84375 11.925781 -14.875 12.28125 -14.875 C 12.65625 -14.875 12.984375 -14.84375 13.265625 -14.78125 C 13.546875 -14.726562 13.78125 -14.628906 13.96875 -14.484375 C 14.164062 -14.335938 14.3125 -14.132812 14.40625 -13.875 C 14.507812 -13.625 14.5625 -13.289062 14.5625 -12.875 Z M 14.5625 -5.421875 "/></g></g></g><g fill="#4d9d2a" fill-opacity="1"><g transform="translate(27.282491, 22.016128)"><g><path d="M 1.15625 -15.015625 C 1.15625 -15.628906 1.359375 -16.144531 1.765625 -16.5625 C 2.179688 -16.988281 2.726562 -17.203125 3.40625 -17.203125 C 4.082031 -17.203125 4.625 -16.988281 5.03125 -16.5625 C 5.445312 -16.144531 5.65625 -15.628906 5.65625 -15.015625 C 5.65625 -14.398438 5.445312 -13.882812 5.03125 -13.46875 C 4.625 -13.050781 4.082031 -12.84375 3.40625 -12.84375 C 2.726562 -12.84375 2.179688 -13.050781 1.765625 -13.46875 C 1.359375 -13.882812 1.15625 -14.398438 1.15625 -15.015625 Z M 5.46875 -0.03125 C 5.289062 0.0078125 5.023438 0.0546875 4.671875 0.109375 C 4.328125 0.160156 3.976562 0.1875 3.625 0.1875 C 3.269531 0.1875 2.953125 0.160156 2.671875 0.109375 C 2.390625 0.0664062 2.148438 -0.0234375 1.953125 -0.171875 C 1.765625 -0.316406 1.617188 -0.515625 1.515625 -0.765625 C 1.410156 -1.015625 1.359375 -1.335938 1.359375 -1.734375 L 1.359375 -11.578125 C 1.535156 -11.617188 1.796875 -11.664062 2.140625 -11.71875 C 2.484375 -11.769531 2.832031 -11.796875 3.1875 -11.796875 C 3.539062 -11.796875 3.859375 -11.769531 4.140625 -11.71875 C 4.429688 -11.675781 4.671875 -11.582031 4.859375 -11.4375 C 5.054688 -11.289062 5.207031 -11.09375 5.3125 -10.84375 C 5.414062 -10.59375 5.46875 -10.269531 5.46875 -9.875 Z M 5.46875 -0.03125 "/></g></g></g><g fill="#4d9d2a" fill-opacity="1"><g transform="translate(34.103993, 22.016128)"><g><path d="M 0.84375 -7.359375 C 0.84375 -8.609375 1.039062 -9.71875 1.4375 -10.6875 C 1.832031 -11.65625 2.375 -12.460938 3.0625 -13.109375 C 3.75 -13.765625 4.554688 -14.265625 5.484375 -14.609375 C 6.410156 -14.953125 7.410156 -15.125 8.484375 -15.125 C 9.566406 -15.125 10.570312 -14.953125 11.5 -14.609375 C 12.425781 -14.265625 13.234375 -13.765625 13.921875 -13.109375 C 14.617188 -12.460938 15.164062 -11.65625 15.5625 -10.6875 C 15.957031 -9.71875 16.15625 -8.609375 16.15625 -7.359375 C 16.15625 -6.097656 15.960938 -4.976562 15.578125 -4 C 15.191406 -3.03125 14.65625 -2.21875 13.96875 -1.5625 C 13.28125 -0.90625 12.46875 -0.40625 11.53125 -0.0625 C 10.601562 0.269531 9.585938 0.4375 8.484375 0.4375 C 7.390625 0.4375 6.375 0.265625 5.4375 -0.078125 C 4.507812 -0.429688 3.703125 -0.9375 3.015625 -1.59375 C 2.335938 -2.257812 1.804688 -3.070312 1.421875 -4.03125 C 1.035156 -5 0.84375 -6.109375 0.84375 -7.359375 Z M 5.203125 -7.359375 C 5.203125 -5.890625 5.5 -4.789062 6.09375 -4.0625 C 6.6875 -3.332031 7.484375 -2.96875 8.484375 -2.96875 C 9.503906 -2.96875 10.3125 -3.332031 10.90625 -4.0625 C 11.5 -4.789062 11.796875 -5.890625 11.796875 -7.359375 C 11.796875 -8.804688 11.5 -9.890625 10.90625 -10.609375 C 10.320312 -11.335938 9.523438 -11.703125 8.515625 -11.703125 C 7.515625 -11.703125 6.710938 -11.34375 6.109375 -10.625 C 5.503906 -9.90625 5.203125 -8.816406 5.203125 -7.359375 Z M 5.203125 -7.359375 "/></g></g></g><g fill="#4d9d2a" fill-opacity="1"><g transform="translate(51.109367, 22.016128)"><g><path d="M 5.375 -4.046875 C 5.375 -3.617188 5.503906 -3.316406 5.765625 -3.140625 C 6.035156 -2.960938 6.410156 -2.875 6.890625 -2.875 C 7.128906 -2.875 7.378906 -2.894531 7.640625 -2.9375 C 7.898438 -2.976562 8.128906 -3.03125 8.328125 -3.09375 C 8.460938 -2.914062 8.582031 -2.71875 8.6875 -2.5 C 8.800781 -2.28125 8.859375 -2.019531 8.859375 -1.71875 C 8.859375 -1.101562 8.625 -0.601562 8.15625 -0.21875 C 7.695312 0.164062 6.890625 0.359375 5.734375 0.359375 C 4.316406 0.359375 3.222656 0.0351562 2.453125 -0.609375 C 1.691406 -1.253906 1.3125 -2.300781 1.3125 -3.75 L 1.3125 -14.09375 C 1.488281 -14.144531 1.738281 -14.195312 2.0625 -14.25 C 2.394531 -14.3125 2.75 -14.34375 3.125 -14.34375 C 3.832031 -14.34375 4.382812 -14.21875 4.78125 -13.96875 C 5.175781 -13.71875 5.375 -13.191406 5.375 -12.390625 L 5.375 -10.84375 L 8.53125 -10.84375 C 8.632812 -10.65625 8.726562 -10.425781 8.8125 -10.15625 C 8.90625 -9.894531 8.953125 -9.601562 8.953125 -9.28125 C 8.953125 -8.71875 8.828125 -8.3125 8.578125 -8.0625 C 8.328125 -7.8125 7.992188 -7.6875 7.578125 -7.6875 L 5.375 -7.6875 Z M 5.375 -4.046875 "/></g></g></g></svg>